<svg width="104" height="104" viewBox="0 0 104 104" fill="none" xmlns="http://www.w3.org/2000/svg">
<rect width="104" height="104" rx="52" fill="#FFFBF4"/>
<path d="M74.064 69.9044C73.1404 69.035 72.5135 67.8971 72.272 66.6519C72.272 66.6138 72.272 66.578 72.272 66.5421V62.3914C72.279 60.9258 71.7888 59.5012 70.8815 58.3502C69.9742 57.1992 68.7034 56.3899 67.2768 56.0544V36.8464C67.2768 35.3612 66.6868 33.9369 65.6366 32.8866C64.5864 31.8364 63.162 31.2464 61.6768 31.2464H56.6771V29.9293C56.6771 29.6323 56.5591 29.3474 56.3491 29.1374C56.139 28.9273 55.8541 28.8093 55.5571 28.8093C55.2601 28.8093 54.9752 28.9273 54.7651 29.1374C54.5551 29.3474 54.4371 29.6323 54.4371 29.9293V31.2464H42.4397V29.9293C42.4397 29.6323 42.3217 29.3474 42.1116 29.1374C41.9016 28.9273 41.6167 28.8093 41.3197 28.8093C41.0226 28.8093 40.7377 28.9273 40.5277 29.1374C40.3177 29.3474 40.1997 29.6323 40.1997 29.9293V31.2464H35.2C33.7148 31.2464 32.2904 31.8364 31.2402 32.8866C30.19 33.9369 29.6 35.3612 29.6 36.8464V63.3456C29.6 64.8309 30.19 66.2552 31.2402 67.3054C32.2904 68.3557 33.7148 68.9456 35.2 68.9456H58.216C57.9739 69.283 57.709 69.6033 57.423 69.9044C57.2642 70.0601 57.1553 70.2596 57.1103 70.4774C57.0653 70.6953 57.0862 70.9216 57.1703 71.1275C57.2544 71.3334 57.3979 71.5096 57.5826 71.6337C57.7672 71.7577 57.9846 71.824 58.207 71.824H62.08C62.1554 72.7415 62.5731 73.597 63.2501 74.2207C63.9272 74.8444 64.814 75.1906 65.7345 75.1906C66.6551 75.1906 67.5419 74.8444 68.219 74.2207C68.896 73.597 69.3137 72.7415 69.3891 71.824H73.28C73.5024 71.824 73.7198 71.7577 73.9044 71.6337C74.0891 71.5096 74.2326 71.3334 74.3167 71.1275C74.4008 70.9216 74.4217 70.6953 74.3766 70.4774C74.3316 70.2596 74.2228 70.0601 74.064 69.9044ZM35.2 33.4864H40.1997V34.8125C40.1997 34.9596 40.2286 35.1052 40.2849 35.2411C40.3412 35.377 40.4237 35.5005 40.5277 35.6045C40.6317 35.7085 40.7552 35.791 40.8911 35.8473C41.0269 35.9036 41.1726 35.9325 41.3197 35.9325C41.4667 35.9325 41.6124 35.9036 41.7483 35.8473C41.8841 35.791 42.0076 35.7085 42.1116 35.6045C42.2156 35.5005 42.2981 35.377 42.3544 35.2411C42.4107 35.1052 42.4397 34.9596 42.4397 34.8125V33.4864H54.4371V34.8125C54.4371 35.1096 54.5551 35.3944 54.7651 35.6045C54.9752 35.8145 55.2601 35.9325 55.5571 35.9325C55.8541 35.9325 56.139 35.8145 56.3491 35.6045C56.5591 35.3944 56.6771 35.1096 56.6771 34.8125V33.4864H61.6768C62.5679 33.4864 63.4225 33.8404 64.0527 34.4706C64.6828 35.1007 65.0368 35.9553 65.0368 36.8464V39.1312H31.84V36.8464C31.84 35.9553 32.194 35.1007 32.8241 34.4706C33.4542 33.8404 34.3088 33.4864 35.2 33.4864ZM35.2 66.7057C34.3088 66.7057 33.4542 66.3516 32.8241 65.7215C32.194 65.0914 31.84 64.2368 31.84 63.3456V41.3712H65.0368V55.9312C63.4421 56.1055 61.9677 56.8619 60.896 58.0555C59.8243 59.2492 59.2305 60.7962 59.2285 62.4004V66.5489C59.2285 66.5869 59.2285 66.6228 59.2285 66.6608C59.2285 66.6989 59.215 66.6967 59.215 66.7146L35.2 66.7057ZM65.7446 72.9508C65.4217 72.9474 65.1094 72.8349 64.8585 72.6315C64.6075 72.4282 64.4328 72.146 64.3625 71.8308H67.1245C67.055 72.146 66.8808 72.4284 66.6302 72.6318C66.3796 72.8352 66.0674 72.9477 65.7446 72.9508ZM68.2221 69.5908C68.1862 69.5908 68.1504 69.5908 68.1123 69.5908H63.3747C63.3374 69.5885 63.3 69.5885 63.2627 69.5908H60.512C61.0595 68.7562 61.3877 67.797 61.4662 66.802C61.4685 66.7565 61.4685 66.7108 61.4662 66.6653V62.3914C61.4532 61.8218 61.5541 61.2553 61.7631 60.7252C61.9721 60.1951 62.2849 59.7121 62.6831 59.3046C63.0814 58.8972 63.5571 58.5734 64.0823 58.3523C64.6074 58.1313 65.1715 58.0174 65.7413 58.0174C66.311 58.0174 66.8751 58.1313 67.4002 58.3523C67.9254 58.5734 68.4011 58.8972 68.7994 59.3046C69.1976 59.7121 69.5104 60.1951 69.7194 60.7252C69.9284 61.2553 70.0293 61.8218 70.0163 62.3914V66.6586C70.0163 66.7034 70.0163 66.7482 70.0163 66.793C70.0949 67.7887 70.423 68.7486 70.9705 69.584L68.2221 69.5908Z" fill="#BD9C52"/>
</svg>
