<svg width="104" height="104" viewBox="0 0 104 104" fill="none" xmlns="http://www.w3.org/2000/svg">
<rect width="104" height="104" rx="52" fill="#FFFBF4"/>
<g clip-path="url(#clip0_0_1458)">
<path d="M38.6178 62.2721C38.9065 62.4234 39.1931 62.5004 39.4683 62.5C39.8681 62.5 40.2247 62.3381 40.4719 62.045C40.6705 61.8088 40.884 61.3857 40.7672 60.7106L40.4413 58.8149L41.8238 57.4718C42.3041 57.0059 42.4822 56.4393 42.3138 55.9178C42.1444 55.3963 41.6671 55.0419 41.0034 54.9461L39.0903 54.6692L38.2349 52.9424C37.9388 52.3434 37.4544 52 36.9063 52C36.3576 52 35.8733 52.3439 35.5776 52.9424L34.7227 54.6692L32.8099 54.9461C32.1458 55.0424 31.6681 55.3968 31.4992 55.9183C31.3299 56.4398 31.5084 57.0063 31.9888 57.4714L33.3713 58.8149L33.0458 60.7093C32.9285 61.3848 33.1411 61.8083 33.3402 62.045C33.7571 62.5411 34.486 62.6431 35.1939 62.2721L36.9063 61.3752L38.6178 62.2721ZM34.8623 60.47L35.2516 58.2024L33.6023 56.5994L35.8829 56.2691L36.9063 54.2024L37.93 56.2696L40.2103 56.5994L38.5609 58.2024L38.9503 60.4704L36.9063 59.3994L34.8623 60.47ZM32.2469 50.2937L31.9713 48.6164L33.1306 47.4342C33.5703 46.9858 33.7269 46.4433 33.5611 45.9468C33.3966 45.455 32.9548 45.1199 32.3484 45.028L30.7799 44.7896L30.0712 43.2867C29.6827 42.4642 29.0619 42.375 28.8129 42.375C28.5636 42.375 27.9423 42.4638 27.5551 43.2867L26.8459 44.7896L25.2775 45.028C24.6703 45.1199 24.2275 45.4554 24.0634 45.9472C23.8981 46.4442 24.0551 46.9867 24.4953 47.4347L25.6538 48.6159L25.3786 50.2929C25.2718 50.9404 25.4774 51.3442 25.6686 51.5695C26.0689 52.042 26.7624 52.1369 27.4191 51.7764L28.8125 51.0099L30.2059 51.7764C30.4763 51.9252 30.7463 52 31.0088 52C31.3837 52 31.7197 51.8473 31.9555 51.5704C32.1463 51.3455 32.3523 50.9417 32.2469 50.2937ZM30.1009 48.024L30.4072 49.8895L28.8125 49.0123L27.2187 49.8878L27.5245 48.024L26.1866 46.6599L28.0311 46.3794L28.8125 44.7213L29.5943 46.3794L31.4375 46.6612L30.1009 48.024ZM71.1905 54.9461L69.2773 54.6692L68.4229 52.9428C68.1267 52.3434 67.6424 52 67.0938 52C66.5456 52 66.0613 52.3434 65.7651 52.9424L64.9098 54.6687L62.9966 54.9457C62.3329 55.0419 61.8556 55.3959 61.6867 55.9174C61.5178 56.4389 61.6959 57.0054 62.1763 57.4714L63.5588 58.8145L63.2328 60.7097C63.116 61.3852 63.3291 61.8088 63.5281 62.045C63.9459 62.5394 64.6739 62.6426 65.3827 62.2716L67.0938 61.3748L68.8061 62.2716C69.0949 62.423 69.381 62.4996 69.6566 62.4996C70.0565 62.4996 70.4131 62.3377 70.6598 62.0446C70.8589 61.8083 71.0711 61.3848 70.9543 60.7102L70.6288 58.8145L72.0113 57.4714C72.4916 57.0059 72.6701 56.4393 72.5013 55.9183C72.3319 55.3959 71.8538 55.0419 71.1905 54.9461ZM68.7479 58.2024L69.1373 60.47L67.0938 59.3994L65.0493 60.4704L65.4396 58.2024L63.7902 56.5994L66.07 56.2696L67.0938 54.2024L68.1171 56.2691L70.3978 56.5994L68.7479 58.2024ZM79.9361 45.9472C79.7721 45.4554 79.3298 45.1203 78.7229 45.0284L77.1541 44.7896L76.4453 43.2876C76.0577 42.4638 75.4364 42.375 75.1871 42.375C74.9377 42.375 74.3173 42.4638 73.9288 43.2867L73.2201 44.7896L71.6521 45.028C71.0453 45.1199 70.6029 45.455 70.4384 45.9468C70.2731 46.4433 70.4297 46.9858 70.8698 47.4342L72.0283 48.6164L71.7531 50.2946C71.6481 50.9421 71.8538 51.3455 72.0445 51.5708C72.4457 52.0416 73.1383 52.1361 73.7936 51.7764L75.1875 51.0099L76.5809 51.7764C76.8513 51.9252 77.1213 52 77.3838 52C77.7596 52 78.0956 51.8469 78.3309 51.5695C78.5226 51.3442 78.7282 50.9399 78.6214 50.2937L78.3458 48.6164L79.5043 47.4351C79.9449 46.9867 80.1019 46.4442 79.9361 45.9472ZM76.4755 48.024L76.7818 49.8895L75.1875 49.0119L73.5928 49.8873L73.8991 48.0236L72.5612 46.6594L74.4053 46.379L75.1871 44.7209L75.9689 46.379L77.8125 46.6608L76.4755 48.024ZM52 47.1875C56.1081 47.1875 59.4375 43.8577 59.4375 39.7491C59.4375 35.641 56.1081 32.3125 52 32.3125C47.8932 32.3125 44.5625 35.6414 44.5625 39.7491C44.5625 43.8573 47.8932 47.1875 52 47.1875ZM52 34.0625C55.136 34.0625 57.6875 36.6136 57.6875 39.7491C57.6875 42.886 55.136 45.4375 52 45.4375C48.864 45.4375 46.3125 42.8856 46.3125 39.7491C46.3125 36.6136 48.864 34.0625 52 34.0625ZM56.8891 65.685L59.1886 63.3387C59.7862 62.7297 60.008 62.0174 59.7971 61.3853C59.5893 60.7618 59.0009 60.3331 58.1836 60.2084L55.0358 59.7306L53.6218 56.7302C53.0977 55.6203 52.3133 55.5 52.0004 55.5C51.6868 55.5 50.9023 55.6199 50.3799 56.7307L48.9646 59.7302L45.8168 60.2088C44.9991 60.3331 44.4103 60.7623 44.2024 61.3857C43.9916 62.0188 44.2138 62.7306 44.8106 63.3378L47.1118 65.685L46.5676 69.0065C46.4201 69.9003 46.6835 70.4345 46.9298 70.725C47.4338 71.3196 48.3154 71.4198 49.1939 70.9367L52 69.3937L54.8057 70.9367C55.1833 71.1446 55.5534 71.2504 55.9047 71.25C56.3684 71.25 56.7823 71.0636 57.0693 70.725C57.3161 70.4345 57.5799 69.9003 57.4324 69.0078L56.8891 65.685ZM55.7065 69.2913C55.7157 69.3482 55.7209 69.3985 55.7236 69.4414C55.6984 69.4295 55.6735 69.4168 55.6492 69.4033L52.0004 67.3965L48.3508 69.4033C48.3267 69.4165 48.3021 69.4291 48.2773 69.4409C48.2795 69.3981 48.2852 69.3482 48.2948 69.2904L48.9817 65.0931L46.0592 62.1124C46.0152 62.0679 45.9747 62.02 45.938 61.9693C45.9847 61.956 46.0322 61.9458 46.0802 61.9387L50.1498 61.3205L51.9628 57.4766C51.9759 57.4486 51.9886 57.4237 52.0009 57.4014C52.0131 57.4237 52.0263 57.4495 52.0394 57.4775L53.8506 61.3205L57.9203 61.9391C57.9771 61.9479 58.0239 61.9584 58.0616 61.9693C58.0245 62.0204 57.9836 62.0685 57.9391 62.1132L55.0188 65.0931L55.7065 69.2913ZM40.0843 52.7328C40.5541 51.8863 41.1019 51.1368 41.7336 50.4876C43.1183 49.0657 44.9501 48.0914 47.2015 47.5694C46.5811 47.1911 46.0075 46.7408 45.4926 46.2281C42.4857 47.2054 40.4259 48.9559 39.0259 51.1119C39.3459 51.4141 39.6092 51.7712 39.8034 52.1662L40.0843 52.7328ZM38.5351 64.6166C38.2489 64.6166 38.0214 64.3909 38.0166 64.1957C38.014 64.1008 38.0149 64.0107 38.0127 63.9166C37.9436 63.8851 37.8744 63.858 37.8058 63.8221L36.9058 63.3505L36.2561 63.6913C36.2588 63.8759 36.2623 64.0597 36.2671 64.2421C36.2977 65.4168 37.3346 66.3666 38.5351 66.3666H45.2271L45.2415 66.2769L43.614 64.6166H38.5351ZM56.7001 47.6294C58.8959 48.1762 60.6988 49.1593 62.0857 50.5733C62.7476 51.2488 63.3256 52.0346 63.8208 52.9244L64.1966 52.1654C64.3716 51.8123 64.593 51.5069 64.8441 51.2436C63.4297 49.0893 61.3756 47.3253 58.4181 46.3116C57.8991 46.8168 57.3225 47.2591 56.7001 47.6294ZM66.1947 63.8217C66.1291 63.8567 66.0604 63.8777 65.9934 63.9079C65.9921 64.0085 65.9939 64.1061 65.9917 64.2076C65.9882 64.3931 65.7598 64.6166 65.482 64.6166H60.386L58.7589 66.2769L58.7734 66.3666H65.482C66.6808 66.3666 67.7185 65.4168 67.7413 64.2421C67.7448 64.0606 67.7469 63.8772 67.7483 63.6935L67.0942 63.3505L66.1947 63.8217Z" fill="#BD9C52"/>
</g>
<defs>
<clipPath id="clip0_0_1458">
<rect width="56" height="56" fill="white" transform="translate(24 24)"/>
</clipPath>
</defs>
</svg>
