<svg width="104" height="104" viewBox="0 0 104 104" fill="none" xmlns="http://www.w3.org/2000/svg">
<rect width="104" height="104" rx="52" fill="#FFFBF4"/>
<path d="M47.625 76.5C43.0196 76.5198 38.5503 74.9393 34.9812 72.0287C34.9501 72.0156 34.9229 71.9945 34.9025 71.9675C33.4811 70.8046 32.2216 69.4568 31.1575 67.96C28.6312 64.3678 27.3493 60.0478 27.5073 55.6591C27.6653 51.2703 29.2545 47.0537 32.0325 43.6525C33.1954 42.2311 34.5432 40.9716 36.04 39.9075C39.4342 37.5272 43.4793 36.2502 47.625 36.2502C51.7707 36.2502 55.8157 37.5272 59.21 39.9075C60.7068 40.9716 62.0546 42.2311 63.2175 43.6525C64.5514 45.2754 65.6178 47.1009 66.3762 49.06C66.4273 49.1923 66.4454 49.3351 66.429 49.476C66.4127 49.617 66.3623 49.7518 66.2822 49.8689C66.2021 49.986 66.0947 50.0819 65.9694 50.1483C65.844 50.2146 65.7043 50.2496 65.5625 50.25H61.52L61.45 50.8012C61.3472 51.6274 61.047 52.4167 60.575 53.1025C60.4709 53.2559 60.3208 53.3724 60.1462 53.435C59.0393 53.8298 58.0134 54.4228 57.1187 55.185C56.9765 55.3076 56.7986 55.3813 56.6112 55.395C55.7794 55.4507 54.946 55.3098 54.1787 54.9837L53.6712 54.7737L51.825 57.9762L52.2625 58.3087C52.9314 58.8083 53.4689 59.4629 53.8287 60.2162C53.9076 60.3824 53.9321 60.5691 53.8987 60.75C53.677 61.9061 53.677 63.0938 53.8987 64.25C53.9321 64.4308 53.9076 64.6176 53.8287 64.7837C53.4689 65.537 52.9314 66.1916 52.2625 66.6912L51.825 67.0237L53.6712 70.2262L54.1787 70.0162C54.946 69.6901 55.7794 69.5492 56.6112 69.605C56.7986 69.6187 56.9765 69.6923 57.1187 69.815C57.7609 70.3685 58.4764 70.8308 59.245 71.1887C59.3853 71.2529 59.5062 71.3531 59.5953 71.4791C59.6845 71.6052 59.7387 71.7525 59.7525 71.9062C59.7661 72.0573 59.7402 72.2094 59.6773 72.3474C59.6144 72.4855 59.5167 72.6048 59.3937 72.6937C55.9726 75.1762 51.8519 76.5089 47.625 76.5ZM35.9437 70.5587C35.9709 70.5743 35.9947 70.5951 36.0137 70.62C38.9668 73.0335 42.5977 74.4683 46.4029 74.7254C50.2081 74.9825 53.999 74.0492 57.25 72.055C56.9107 71.8366 56.5836 71.6 56.27 71.3462C55.8035 71.3461 55.342 71.4414 54.9137 71.6262L53.6625 72.125C53.4656 72.2093 53.2446 72.2184 53.0414 72.1507C52.8382 72.083 52.6669 71.9431 52.56 71.7575L49.935 67.2075C49.8284 67.0218 49.7935 66.8035 49.8371 66.5939C49.8806 66.3842 49.9995 66.1978 50.1712 66.07L51.23 65.2737C51.6019 64.9977 51.9144 64.6495 52.1487 64.25C51.9529 63.0915 51.9529 61.9084 52.1487 60.75C51.9153 60.3473 51.6028 59.9961 51.23 59.7175L50.1712 58.9212C49.9995 58.7934 49.8806 58.607 49.8371 58.3973C49.7935 58.1877 49.8284 57.9694 49.935 57.7837L52.56 53.2337C52.6683 53.0497 52.8402 52.9116 53.0433 52.8455C53.2464 52.7795 53.4666 52.7899 53.6625 52.875L54.8787 53.3912C55.307 53.576 55.7685 53.6713 56.235 53.6712C57.1533 52.9338 58.1805 52.3434 59.28 51.9212C59.5135 51.518 59.6623 51.0714 59.7175 50.6087L59.875 49.2612C59.9027 49.0494 60.0071 48.855 60.1682 48.7148C60.3294 48.5746 60.5363 48.4982 60.75 48.5H64.25C63.6163 47.161 62.8231 45.9035 61.8875 44.755C60.8195 43.4593 59.5836 42.3117 58.2125 41.3425C55.1175 39.166 51.4261 37.998 47.6425 37.998C43.8588 37.998 40.1674 39.166 37.0725 41.3425C35.7013 42.3117 34.4655 43.4593 33.3975 44.755C30.7215 48.037 29.2569 52.1403 29.25 56.375C29.2396 60.1599 30.4078 63.8542 32.5925 66.945C33.5459 68.2916 34.6727 69.5067 35.9437 70.5587Z" fill="#BD9C52"/>
<path d="M47.625 72.125C44.0258 72.1396 40.5335 70.9023 37.7463 68.625C37.7165 68.6096 37.6898 68.5889 37.6675 68.5638C36.553 67.6573 35.5668 66.6035 34.7363 65.4312C32.7603 62.6193 31.7583 59.2383 31.8831 55.8038C32.0079 52.3693 33.2526 49.0698 35.4275 46.4088C36.334 45.2942 37.3878 44.3081 38.56 43.4775C41.2138 41.6097 44.3798 40.6073 47.625 40.6073C50.8702 40.6073 54.0362 41.6097 56.69 43.4775C57.8622 44.3081 58.9161 45.2942 59.8225 46.4088C60.4747 47.1967 61.0436 48.05 61.52 48.955C61.606 49.1157 61.6396 49.2992 61.6163 49.48L61.45 50.7925C61.3472 51.6187 61.0471 52.408 60.575 53.0938C60.4709 53.2472 60.3208 53.3636 60.1463 53.4263C59.0393 53.8211 58.0134 54.4141 57.1188 55.1763C56.9765 55.2989 56.7986 55.3725 56.6113 55.3862C55.7794 55.442 54.9461 55.3011 54.1788 54.975L53.6713 54.765L51.825 57.9675L52.2625 58.3C52.9314 58.7996 53.4689 59.4542 53.8288 60.2075C53.9076 60.3736 53.9321 60.5604 53.8988 60.7413C53.6771 61.8974 53.6771 63.0851 53.8988 64.2413C53.9321 64.4221 53.9076 64.6089 53.8288 64.775C53.4689 65.5283 52.9314 66.1829 52.2625 66.6825L51.825 67.015L53.4875 69.8937C53.5515 70.0042 53.5906 70.1273 53.602 70.2544C53.6134 70.3816 53.5968 70.5097 53.5535 70.6297C53.5101 70.7498 53.441 70.8589 53.351 70.9494C53.261 71.0399 53.1523 71.1097 53.0325 71.1537C51.3018 71.7954 49.4708 72.1242 47.625 72.125ZM38.7088 67.1637C38.7359 67.1793 38.7597 67.2001 38.7788 67.225C41.2708 69.273 44.3994 70.3871 47.625 70.375C48.9185 70.3794 50.206 70.1997 51.4488 69.8412L49.935 67.2162C49.8284 67.0306 49.7936 66.8123 49.8371 66.6026C49.8807 66.393 49.9995 66.2066 50.1713 66.0788L51.23 65.2825C51.6028 65.0039 51.9153 64.6527 52.1488 64.25C51.953 63.0915 51.953 61.9085 52.1488 60.75C51.9153 60.3473 51.6028 59.9961 51.23 59.7175L50.1713 58.9212C49.9995 58.7934 49.8807 58.607 49.8371 58.3974C49.7936 58.1877 49.8284 57.9694 49.935 57.7838L52.56 53.2337C52.6684 53.0497 52.8402 52.9116 53.0433 52.8456C53.2464 52.7795 53.4666 52.79 53.6625 52.875L54.8788 53.3913C55.307 53.5761 55.7686 53.6713 56.235 53.6712C57.1533 52.9338 58.1805 52.3434 59.28 51.9212C59.5135 51.518 59.6623 51.0714 59.7175 50.6087L59.875 49.5413C59.4762 48.8319 59.0166 48.1586 58.5013 47.5287C56.2667 44.7824 53.0746 42.9847 49.5677 42.4977C46.0609 42.0106 42.4997 42.8703 39.6013 44.9037C37.7529 46.1911 36.2437 47.907 35.203 49.9047C34.1622 51.9024 33.6208 54.1225 33.625 56.375C33.613 59.2583 34.5033 62.0731 36.1713 64.425C36.891 65.4471 37.7445 66.3682 38.7088 67.1637ZM51.125 34.5H44.125C43.893 34.5 43.6704 34.4078 43.5063 34.2437C43.3422 34.0796 43.25 33.8571 43.25 33.625V28.375C43.25 28.1429 43.3422 27.9204 43.5063 27.7563C43.6704 27.5922 43.893 27.5 44.125 27.5H51.125C51.3571 27.5 51.5796 27.5922 51.7437 27.7563C51.9078 27.9204 52 28.1429 52 28.375V33.625C52 33.8571 51.9078 34.0796 51.7437 34.2437C51.5796 34.4078 51.3571 34.5 51.125 34.5ZM45 32.75H50.25V29.25H45V32.75Z" fill="#BD9C52"/>
<path d="M47.625 38C47.3929 38 47.1704 37.9078 47.0063 37.7437C46.8422 37.5796 46.75 37.3571 46.75 37.125V33.625C46.75 33.3929 46.8422 33.1704 47.0063 33.0063C47.1704 32.8422 47.3929 32.75 47.625 32.75C47.8571 32.75 48.0796 32.8422 48.2437 33.0063C48.4078 33.1704 48.5 33.3929 48.5 33.625V37.125C48.5 37.3571 48.4078 37.5796 48.2437 37.7437C48.0796 37.9078 47.8571 38 47.625 38ZM32.75 45.0788C32.6349 45.0794 32.5207 45.0573 32.4141 45.0138C32.3075 44.9703 32.2105 44.9061 32.1288 44.825L30.0638 42.795C29.7378 42.4671 29.5549 42.0236 29.5549 41.5612C29.5549 41.0989 29.7378 40.6554 30.0638 40.3275L32.54 37.8512C32.8679 37.5253 33.3114 37.3424 33.7738 37.3424C34.2361 37.3424 34.6796 37.5253 35.0075 37.8512L37.1688 40.0038C37.2564 40.0952 37.3242 40.2039 37.3679 40.3228C37.4116 40.4418 37.4302 40.5685 37.4225 40.695C37.4126 40.8233 37.3746 40.9479 37.3111 41.0598C37.2475 41.1717 37.1601 41.2682 37.055 41.3425C35.6839 42.3117 34.448 43.4593 33.38 44.755C33.3034 44.8499 33.2077 44.9277 33.0992 44.9835C32.9907 45.0392 32.8718 45.0717 32.75 45.0788ZM33.8175 39.085L31.2975 41.5612L32.6538 42.9175C33.4415 42.0524 34.299 41.2535 35.2175 40.5287L33.8175 39.085ZM62.5438 45.0788C62.422 45.0717 62.303 45.0392 62.1945 44.9835C62.086 44.9277 61.9904 44.8499 61.9138 44.755C60.8458 43.4593 59.6099 42.3117 58.2388 41.3425C58.1337 41.2682 58.0462 41.1717 57.9827 41.0598C57.9192 40.9479 57.8811 40.8233 57.8713 40.695C57.8636 40.5685 57.8822 40.4418 57.9258 40.3228C57.9695 40.2039 58.0373 40.0952 58.125 40.0038L60.2863 37.8512C60.6141 37.5253 61.0577 37.3424 61.52 37.3424C61.9823 37.3424 62.4259 37.5253 62.7538 37.8512L65.23 40.3275C65.5559 40.6554 65.7389 41.0989 65.7389 41.5612C65.7389 42.0236 65.5559 42.4671 65.23 42.795L63.165 44.825C63.0832 44.9061 62.9863 44.9703 62.8797 45.0138C62.7731 45.0573 62.6589 45.0794 62.5438 45.0788ZM60.0325 40.5287C60.951 41.2535 61.8085 42.0524 62.5963 42.9175L63.9525 41.5612L61.4763 39.085L60.0325 40.5287ZM66 76.5H60.75C60.5364 76.5018 60.3294 76.4254 60.1683 76.2852C60.0071 76.1449 59.9028 75.9506 59.875 75.7388L59.7088 74.4263C59.6565 73.9602 59.5075 73.5102 59.2713 73.105C59.0175 73 58.7638 72.895 58.51 72.7725C57.695 72.3892 56.9284 71.9104 56.2263 71.3463C55.7598 71.3462 55.2983 71.4414 54.87 71.6263L53.6625 72.125C53.4656 72.2093 53.2446 72.2184 53.0414 72.1507C52.8382 72.083 52.6669 71.9431 52.56 71.7575L49.935 67.2075C49.8284 67.0218 49.7936 66.8035 49.8371 66.5939C49.8806 66.3843 49.9995 66.1979 50.1713 66.07L51.23 65.2738C51.6019 64.9977 51.9144 64.6495 52.1488 64.25C51.9529 63.0915 51.9529 61.9085 52.1488 60.75C51.9153 60.3473 51.6028 59.9961 51.23 59.7175L50.1713 58.9212C49.9995 58.7934 49.8806 58.607 49.8371 58.3974C49.7936 58.1877 49.8284 57.9694 49.935 57.7838L52.56 53.2337C52.6683 53.0497 52.8402 52.9116 53.0433 52.8456C53.2464 52.7795 53.4666 52.79 53.6625 52.875L54.8788 53.3913C55.307 53.5761 55.7686 53.6713 56.235 53.6712C57.1533 52.9338 58.1805 52.3434 59.28 51.9212C59.5135 51.518 59.6623 51.0714 59.7175 50.6087L59.875 49.2613C59.9028 49.0494 60.0071 48.8551 60.1683 48.7148C60.3294 48.5746 60.5364 48.4982 60.75 48.5H66C66.2136 48.4982 66.4206 48.5746 66.5817 48.7148C66.7429 48.8551 66.8472 49.0494 66.875 49.2613L67.0413 50.5738C67.095 51.0395 67.2439 51.4892 67.4788 51.895C68.5782 52.3172 69.6055 52.9075 70.5238 53.645C70.9902 53.6451 71.4517 53.5498 71.88 53.365L73.0875 52.875C73.2844 52.7907 73.5054 52.7816 73.7086 52.8493C73.9118 52.917 74.0831 53.0569 74.19 53.2425L76.815 57.7925C76.9216 57.9782 76.9564 58.1965 76.9129 58.4061C76.8694 58.6157 76.7505 58.8021 76.5788 58.93L75.52 59.7263C75.1481 60.0023 74.8356 60.3505 74.6013 60.75C74.7971 61.9085 74.7971 63.0915 74.6013 64.25C74.8347 64.6527 75.1472 65.0039 75.52 65.2825L76.5788 66.0788C76.7505 66.2066 76.8694 66.393 76.9129 66.6026C76.9564 66.8123 76.9216 67.0306 76.815 67.2162L74.19 71.7663C74.0817 71.9503 73.9098 72.0883 73.7067 72.1544C73.5036 72.2205 73.2834 72.21 73.0875 72.125L71.8713 71.6087C71.443 71.4239 70.9814 71.3287 70.515 71.3288C69.5967 72.0662 68.5695 72.6566 67.47 73.0788C67.2365 73.482 67.0877 73.9286 67.0325 74.3913L66.875 75.7388C66.8472 75.9506 66.7429 76.1449 66.5817 76.2852C66.4206 76.4254 66.2136 76.5018 66 76.5ZM61.52 74.75H65.23L65.3 74.1987C65.4028 73.3726 65.7029 72.5833 66.175 71.8975C66.2791 71.744 66.4292 71.6276 66.6038 71.565C67.7107 71.1702 68.7366 70.5772 69.6313 69.815C69.7735 69.6923 69.9514 69.6187 70.1388 69.605C70.9706 69.5493 71.8039 69.6901 72.5713 70.0163L73.0788 70.2262L74.925 67.0238L74.4875 66.6912C73.8186 66.1917 73.2811 65.5371 72.9213 64.7838C72.8424 64.6176 72.8179 64.4309 72.8513 64.25C73.073 63.0939 73.073 61.9061 72.8513 60.75C72.8179 60.5691 72.8424 60.3824 72.9213 60.2162C73.2811 59.4629 73.8186 58.8083 74.4875 58.3088L74.925 57.9763L73.0788 54.7737L72.5713 54.9837C71.8039 55.3099 70.9706 55.4507 70.1388 55.395C69.9514 55.3813 69.7735 55.3077 69.6313 55.185C68.7366 54.4228 67.7107 53.8298 66.6038 53.435C66.4292 53.3724 66.2791 53.256 66.175 53.1025C65.7013 52.4143 65.4011 51.6218 65.3 50.7925L65.23 50.25H61.52L61.45 50.8012C61.3472 51.6274 61.0471 52.4167 60.575 53.1025C60.4709 53.256 60.3208 53.3724 60.1463 53.435C59.0393 53.8298 58.0134 54.4228 57.1188 55.185C56.9765 55.3077 56.7986 55.3813 56.6113 55.395C55.7794 55.4507 54.9461 55.3099 54.1788 54.9837L53.6713 54.7737L51.825 57.9763L52.2625 58.3088C52.9314 58.8083 53.4689 59.4629 53.8288 60.2162C53.9076 60.3824 53.9321 60.5691 53.8988 60.75C53.6771 61.9061 53.6771 63.0939 53.8988 64.25C53.9321 64.4309 53.9076 64.6176 53.8288 64.7838C53.4689 65.5371 52.9314 66.1917 52.2625 66.6912L51.825 67.0238L53.6713 70.2262L54.1788 70.0163C54.9461 69.6901 55.7794 69.5493 56.6113 69.605C56.7986 69.6187 56.9765 69.6923 57.1188 69.815C57.7609 70.3686 58.4764 70.8308 59.245 71.1888C59.5425 71.3288 59.84 71.4513 60.12 71.565C60.2945 71.6276 60.4447 71.744 60.5488 71.8975C61.0224 72.5857 61.3226 73.3782 61.4238 74.2075L61.52 74.75Z" fill="#BD9C52"/>
<path d="M63.375 67.75C62.3367 67.75 61.3216 67.4421 60.4583 66.8652C59.5949 66.2883 58.922 65.4684 58.5246 64.5091C58.1273 63.5498 58.0233 62.4942 58.2259 61.4758C58.4285 60.4574 58.9285 59.5219 59.6627 58.7877C60.3969 58.0535 61.3324 57.5535 62.3508 57.3509C63.3692 57.1483 64.4248 57.2523 65.3841 57.6496C66.3434 58.047 67.1633 58.7199 67.7402 59.5833C68.3171 60.4466 68.625 61.4617 68.625 62.5C68.625 63.8924 68.0719 65.2277 67.0873 66.2123C66.1027 67.1969 64.7674 67.75 63.375 67.75ZM63.375 59C62.6828 59 62.0061 59.2053 61.4305 59.5899C60.8549 59.9744 60.4063 60.5211 60.1414 61.1606C59.8765 61.8002 59.8072 62.5039 59.9423 63.1828C60.0773 63.8618 60.4106 64.4854 60.9001 64.9749C61.3896 65.4644 62.0133 65.7977 62.6922 65.9328C63.3711 66.0678 64.0749 65.9985 64.7144 65.7336C65.3539 65.4687 65.9006 65.0201 66.2851 64.4445C66.6697 63.8689 66.875 63.1922 66.875 62.5C66.875 61.5717 66.5063 60.6815 65.8499 60.0251C65.1935 59.3688 64.3033 59 63.375 59Z" fill="#BD9C52"/>
<path d="M47.625 45.875C48.1082 45.875 48.5 45.4832 48.5 45C48.5 44.5168 48.1082 44.125 47.625 44.125C47.1418 44.125 46.75 44.5168 46.75 45C46.75 45.4832 47.1418 45.875 47.625 45.875Z" fill="#BD9C52"/>
<path d="M47.625 68.625C48.1082 68.625 48.5 68.2332 48.5 67.75C48.5 67.2668 48.1082 66.875 47.625 66.875C47.1418 66.875 46.75 67.2668 46.75 67.75C46.75 68.2332 47.1418 68.625 47.625 68.625Z" fill="#BD9C52"/>
<path d="M41.9375 47.3975C42.4207 47.3975 42.8125 47.0057 42.8125 46.5225C42.8125 46.0392 42.4207 45.6475 41.9375 45.6475C41.4543 45.6475 41.0625 46.0392 41.0625 46.5225C41.0625 47.0057 41.4543 47.3975 41.9375 47.3975Z" fill="#BD9C52"/>
<path d="M37.7725 51.5625C38.2558 51.5625 38.6475 51.1707 38.6475 50.6875C38.6475 50.2043 38.2558 49.8125 37.7725 49.8125C37.2893 49.8125 36.8975 50.2043 36.8975 50.6875C36.8975 51.1707 37.2893 51.5625 37.7725 51.5625Z" fill="#BD9C52"/>
<path d="M53.3125 47.3975C53.7957 47.3975 54.1875 47.0057 54.1875 46.5225C54.1875 46.0392 53.7957 45.6475 53.3125 45.6475C52.8293 45.6475 52.4375 46.0392 52.4375 46.5225C52.4375 47.0057 52.8293 47.3975 53.3125 47.3975Z" fill="#BD9C52"/>
<path d="M41.9375 67.1025C42.4207 67.1025 42.8125 66.7108 42.8125 66.2275C42.8125 65.7443 42.4207 65.3525 41.9375 65.3525C41.4543 65.3525 41.0625 65.7443 41.0625 66.2275C41.0625 66.7108 41.4543 67.1025 41.9375 67.1025Z" fill="#BD9C52"/>
<path d="M57.4775 51.5625C57.9607 51.5625 58.3525 51.1707 58.3525 50.6875C58.3525 50.2043 57.9607 49.8125 57.4775 49.8125C56.9942 49.8125 56.6025 50.2043 56.6025 50.6875C56.6025 51.1707 56.9942 51.5625 57.4775 51.5625Z" fill="#BD9C52"/>
<path d="M37.7725 62.9375C38.2558 62.9375 38.6475 62.5457 38.6475 62.0625C38.6475 61.5793 38.2558 61.1875 37.7725 61.1875C37.2893 61.1875 36.8975 61.5793 36.8975 62.0625C36.8975 62.5457 37.2893 62.9375 37.7725 62.9375Z" fill="#BD9C52"/>
<path d="M36.25 57.25C36.7332 57.25 37.125 56.8582 37.125 56.375C37.125 55.8918 36.7332 55.5 36.25 55.5C35.7668 55.5 35.375 55.8918 35.375 56.375C35.375 56.8582 35.7668 57.25 36.25 57.25Z" fill="#BD9C52"/>
<path d="M47.625 57.25C47.3929 57.25 47.1704 57.1578 47.0063 56.9937C46.8422 56.8296 46.75 56.6071 46.75 56.375V48.5C46.75 48.2679 46.8422 48.0454 47.0063 47.8813C47.1704 47.7172 47.3929 47.625 47.625 47.625C47.8571 47.625 48.0796 47.7172 48.2437 47.8813C48.4078 48.0454 48.5 48.2679 48.5 48.5V56.375C48.5 56.6071 48.4078 56.8296 48.2437 56.9937C48.0796 57.1578 47.8571 57.25 47.625 57.25Z" fill="#BD9C52"/>
<path d="M47.625 59C47.1058 59 46.5983 58.846 46.1666 58.5576C45.735 58.2692 45.3985 57.8592 45.1998 57.3795C45.0011 56.8999 44.9492 56.3721 45.0504 55.8629C45.1517 55.3537 45.4017 54.886 45.7688 54.5188C46.136 54.1517 46.6037 53.9017 47.1129 53.8004C47.6221 53.6992 48.1499 53.7511 48.6295 53.9498C49.1092 54.1485 49.5192 54.485 49.8076 54.9166C50.096 55.3483 50.25 55.8558 50.25 56.375C50.25 57.0712 49.9734 57.7389 49.4812 58.2312C48.9889 58.7234 48.3212 59 47.625 59ZM47.625 55.5C47.4519 55.5 47.2828 55.5513 47.1389 55.6475C46.995 55.7436 46.8828 55.8803 46.8166 56.0402C46.7504 56.2 46.7331 56.376 46.7668 56.5457C46.8006 56.7154 46.8839 56.8713 47.0063 56.9937C47.1287 57.1161 47.2846 57.1994 47.4543 57.2332C47.624 57.267 47.8 57.2496 47.9598 57.1834C48.1197 57.1172 48.2564 57.005 48.3525 56.8611C48.4487 56.7172 48.5 56.5481 48.5 56.375C48.5 56.1429 48.4078 55.9204 48.2437 55.7563C48.0796 55.5922 47.8571 55.5 47.625 55.5Z" fill="#BD9C52"/>
</svg>
