<svg width="104" height="104" viewBox="0 0 104 104" fill="none" xmlns="http://www.w3.org/2000/svg">
<rect width="104" height="104" rx="52" fill="#FFFBF4"/>
<path d="M63.6667 69.5C65.5988 69.4979 67.1646 67.9322 67.1667 66C67.1667 64.067 65.5997 62.5 63.6667 62.5C61.7337 62.5 60.1667 64.067 60.1667 66C60.1667 67.933 61.7337 69.5 63.6667 69.5ZM63.6667 64.8334C64.3105 64.8347 64.8321 65.3562 64.8334 66C64.8334 66.6443 64.311 67.1667 63.6667 67.1667C63.0224 67.1667 62.5 66.6443 62.5 66C62.5 65.3558 63.0224 64.8334 63.6667 64.8334ZM63.6667 60.1667C65.5988 60.1646 67.1646 58.5989 67.1667 56.6667C67.1667 54.7337 65.5997 53.1667 63.6667 53.1667C61.7337 53.1667 60.1667 54.7337 60.1667 56.6667C60.1667 58.5997 61.7337 60.1667 63.6667 60.1667ZM63.6667 55.5C64.3105 55.5013 64.8321 56.0229 64.8334 56.6667C64.8334 57.311 64.311 57.8334 63.6667 57.8334C63.0224 57.8334 62.5 57.311 62.5 56.6667C62.5 56.0224 63.0224 55.5 63.6667 55.5ZM69.5 31H64.8334V27.5C64.8334 26.8558 64.311 26.3334 63.6667 26.3334C63.0224 26.3334 62.5 26.8558 62.5 27.5V31H41.5V27.5C41.5 26.8558 40.9776 26.3334 40.3334 26.3334C39.6891 26.3334 39.1667 26.8558 39.1667 27.5V31H34.5C31.2796 31.003 28.6697 33.6129 28.6667 36.8334V71.8334C28.6697 75.0538 31.2796 77.6637 34.5 77.6667H69.5C72.7205 77.6637 75.3304 75.0538 75.3334 71.8334V36.8334C75.3304 33.6129 72.7205 31.003 69.5 31ZM73 71.8334C72.9979 73.7655 71.4322 75.3312 69.5 75.3334H34.5C32.5679 75.3312 31.0022 73.7655 31 71.8334V47.3334H73V71.8334ZM73 45H31V36.8334C31.0022 34.9012 32.5679 33.3355 34.5 33.3334H39.1667V36.8334C39.1667 36.8328 39.1667 36.8338 39.1667 36.8334C39.1671 37.4772 39.6894 38.0005 40.3334 38C40.3328 38 40.3338 38 40.3334 38C40.9772 37.9996 41.5004 37.4774 41.5 36.8334V33.3334H62.5V36.8334C62.5 36.8328 62.5 36.8338 62.5 36.8334C62.5004 37.4772 63.0227 38.0005 63.6667 38C63.6661 38 63.6671 38 63.6667 38C64.3105 37.9996 64.8338 37.4774 64.8334 36.8334V33.3334H69.5C71.4322 33.3355 72.9979 34.9012 73 36.8334V45ZM40.3334 69.5C42.2655 69.4979 43.8312 67.9322 43.8334 66C43.8334 64.067 42.2664 62.5 40.3334 62.5C38.4003 62.5 36.8334 64.067 36.8334 66C36.8334 67.933 38.4003 69.5 40.3334 69.5ZM40.3334 64.8334C40.9772 64.8347 41.4987 65.3562 41.5 66C41.5 66.6443 40.9776 67.1667 40.3334 67.1667C39.6891 67.1667 39.1667 66.6443 39.1667 66C39.1667 65.3558 39.6891 64.8334 40.3334 64.8334ZM52 69.5C53.9322 69.4979 55.4979 67.9322 55.5 66C55.5 64.067 53.933 62.5 52 62.5C50.067 62.5 48.5 64.067 48.5 66C48.5 67.933 50.067 69.5 52 69.5ZM52 64.8334C52.6439 64.8347 53.1654 65.3562 53.1667 66C53.1667 66.6443 52.6443 67.1667 52 67.1667C51.3557 67.1667 50.8334 66.6443 50.8334 66C50.8334 65.3558 51.3557 64.8334 52 64.8334ZM52 60.1667C53.9322 60.1646 55.4979 58.5989 55.5 56.6667C55.5 54.7337 53.933 53.1667 52 53.1667C50.067 53.1667 48.5 54.7337 48.5 56.6667C48.5 58.5997 50.067 60.1667 52 60.1667ZM52 55.5C52.6439 55.5013 53.1654 56.0229 53.1667 56.6667C53.1667 57.311 52.6443 57.8334 52 57.8334C51.3557 57.8334 50.8334 57.311 50.8334 56.6667C50.8334 56.0224 51.3557 55.5 52 55.5ZM40.3334 60.1667C42.2655 60.1646 43.8312 58.5989 43.8334 56.6667C43.8334 54.7337 42.2664 53.1667 40.3334 53.1667C38.4003 53.1667 36.8334 54.7337 36.8334 56.6667C36.8334 58.5997 38.4003 60.1667 40.3334 60.1667ZM40.3334 55.5C40.9772 55.5013 41.4987 56.0229 41.5 56.6667C41.5 57.311 40.9776 57.8334 40.3334 57.8334C39.6891 57.8334 39.1667 57.311 39.1667 56.6667C39.1667 56.0224 39.6891 55.5 40.3334 55.5Z" fill="#BD9C52"/>
</svg>
