<svg width="48" height="48" viewBox="0 0 48 48" fill="none" xmlns="http://www.w3.org/2000/svg">
<mask id="mask0_0_1351" style="mask-type:luminance" maskUnits="userSpaceOnUse" x="0" y="0" width="48" height="48">
<path d="M48 0H0V48H48V0Z" fill="white"/>
</mask>
<g mask="url(#mask0_0_1351)">
<path d="M23.999 48.0008C37.2539 48.0008 47.999 37.2556 47.999 24.0008C47.999 10.7459 37.2539 0.000732422 23.999 0.000732422C10.7442 0.000732422 -0.000976562 10.7459 -0.000976562 24.0008C-0.000976562 37.2556 10.7442 48.0008 23.999 48.0008Z" fill="#FFF0C0"/>
<path d="M31.0395 46.9423C31.0575 46.9374 31.0755 46.9324 31.0935 46.9273C31.8572 46.6905 32.6087 46.4157 33.345 46.1038C34.0819 45.7926 34.8028 45.4446 35.505 45.0613C36.208 44.6778 36.8913 44.2592 37.5525 43.8073C38.2123 43.3559 38.8491 42.8718 39.4605 42.3568C40.0735 41.8405 40.6602 41.2939 41.2185 40.7188C41.7751 40.1455 42.3028 39.5448 42.7995 38.9188C43.2967 38.292 43.7623 37.6407 44.1945 36.9673C44.6274 36.2942 45.0264 35.5998 45.39 34.8868C45.7523 34.1731 46.0787 33.4417 46.368 32.6953C46.5739 32.1448 46.7595 31.587 46.9245 31.0228L31.9515 16.0483C30.9087 15.0019 29.6694 14.1718 28.3049 13.6057C26.9403 13.0396 25.4773 12.7488 24 12.7498C17.796 12.7498 12.75 17.7958 12.75 23.9998C12.75 27.1018 14.0115 29.9143 16.05 31.9498L31.0395 46.9423Z" fill="#CDA951"/>
<path d="M24 12.75C17.796 12.75 12.75 17.796 12.75 24C12.75 30.204 17.796 35.25 24 35.25C30.204 35.25 35.25 30.204 35.25 24C35.25 17.796 30.204 12.75 24 12.75ZM24 14.25C29.394 14.25 33.75 18.606 33.75 24C33.75 29.394 29.394 33.75 24 33.75C22.7192 33.7516 21.4506 33.5005 20.267 33.0111C19.0833 32.5216 18.0079 31.8035 17.1022 30.8978C16.1965 29.9921 15.4784 28.9167 14.989 27.7331C14.4995 26.5494 14.2484 25.2809 14.25 24C14.25 18.606 18.606 14.25 24 14.25ZM23.988 16.5C23.8895 16.5016 23.7923 16.5225 23.7019 16.5617C23.6115 16.6008 23.5297 16.6574 23.4612 16.7281C23.3926 16.7989 23.3387 16.8825 23.3025 16.9741C23.2662 17.0657 23.2484 17.1635 23.25 17.262V24C23.25 24.1989 23.329 24.3897 23.4697 24.5304C23.6103 24.671 23.8011 24.75 24 24.75H30.738C30.9369 24.75 31.1277 24.671 31.2683 24.5304C31.409 24.3897 31.488 24.1989 31.488 24C31.488 23.8011 31.409 23.6103 31.2683 23.4697C31.1277 23.329 30.9369 23.25 30.738 23.25H24.75V17.262C24.7516 17.1615 24.733 17.0617 24.6953 16.9685C24.6576 16.8753 24.6015 16.7907 24.5304 16.7196C24.4593 16.6485 24.3747 16.5924 24.2815 16.5547C24.1883 16.517 24.0885 16.4984 23.988 16.5Z" fill="white"/>
</g>
</svg>
