<svg width="194" height="24" viewBox="0 0 194 24" fill="none" xmlns="http://www.w3.org/2000/svg">
<path d="M0.15625 16.0469L4.65625 15.6094C4.92715 17.1198 5.47405 18.2292 6.29695 18.9375C7.13025 19.6458 8.25005 20 9.65625 20C11.1459 20 12.2657 19.6875 13.0157 19.0625C13.7761 18.4271 14.1562 17.6875 14.1562 16.8438C14.1562 16.3021 13.9949 15.8438 13.672 15.4688C13.3595 15.0833 12.8074 14.75 12.0157 14.4688C11.4741 14.2812 10.2397 13.9479 8.31255 13.4688C5.83335 12.8542 4.09386 12.099 3.09386 11.2031C1.68756 9.94273 0.984451 8.40622 0.984451 6.59382C0.984451 5.42712 1.31256 4.33852 1.96886 3.32812C2.63546 2.30732 3.58856 1.53122 4.82816 1.00002C6.07816 0.468825 7.58336 0.203125 9.34386 0.203125C12.2189 0.203125 14.3803 0.833324 15.8282 2.09382C17.2866 3.35422 18.0522 5.03652 18.1251 7.14062L13.5001 7.34382C13.3022 6.16672 12.8751 5.32292 12.2189 4.81252C11.573 4.29172 10.5991 4.03123 9.29695 4.03123C7.95315 4.03123 6.90106 4.30732 6.14066 4.85942C5.65106 5.21352 5.40625 5.68753 5.40625 6.28123C5.40625 6.82293 5.63546 7.28652 6.09386 7.67192C6.67716 8.16152 8.09386 8.67192 10.3439 9.20312C12.5939 9.73442 14.2553 10.2865 15.3282 10.8594C16.4116 11.4219 17.2553 12.1979 17.8595 13.1875C18.4741 14.1667 18.7812 15.3802 18.7812 16.8281C18.7812 18.1406 18.4168 19.3698 17.6876 20.5156C16.9584 21.6615 15.9272 22.5156 14.5939 23.0781C13.2605 23.6302 11.5991 23.9062 9.60945 23.9062C6.71355 23.9062 4.48965 23.2396 2.93755 21.9062C1.38545 20.5625 0.45835 18.6094 0.15625 16.0469ZM37.1091 11.8125L32.7812 12.5938C32.6354 11.7292 32.3022 11.0781 31.7812 10.6406C31.2708 10.2031 30.6042 9.98442 29.7812 9.98442C28.6875 9.98442 27.8125 10.3646 27.1562 11.125C26.5105 11.875 26.1876 13.1354 26.1876 14.9062C26.1876 16.875 26.5157 18.2656 27.172 19.0781C27.8386 19.8906 28.7293 20.2969 29.8439 20.2969C30.6772 20.2969 31.3595 20.0625 31.8907 19.5938C32.422 19.1146 32.797 18.2969 33.0157 17.1406L37.3281 17.875C36.8801 19.8542 36.0211 21.349 34.7501 22.3594C33.4793 23.3698 31.7761 23.875 29.6407 23.875C27.2136 23.875 25.2761 23.1094 23.8282 21.5781C22.3907 20.0469 21.672 17.9271 21.672 15.2188C21.672 12.4792 22.3959 10.349 23.8439 8.82812C25.2918 7.29693 27.2501 6.53123 29.7189 6.53123C31.7397 6.53123 33.3438 6.96882 34.5312 7.84382C35.729 8.70832 36.5891 10.0312 37.1091 11.8125ZM44.8281 0.593824V9.01562C46.2451 7.35943 47.9381 6.53123 49.9061 6.53123C50.9171 6.53123 51.8281 6.71882 52.6411 7.09382C53.4531 7.46882 54.0621 7.94793 54.4691 8.53123C54.8851 9.11462 55.167 9.76042 55.312 10.4688C55.4691 11.1771 55.5471 12.276 55.5471 13.7656V23.5H51.1561V14.7344C51.1561 12.9948 51.0731 11.8906 50.9061 11.4219C50.7401 10.9531 50.4431 10.5833 50.0161 10.3125C49.5991 10.0312 49.0731 9.89062 48.4381 9.89062C47.7081 9.89062 47.0571 10.0677 46.4841 10.4219C45.9111 10.776 45.4901 11.3125 45.2191 12.0312C44.9581 12.7396 44.8281 13.7917 44.8281 15.1875V23.5H40.4381V0.593824H44.8281ZM69.6251 18.2188L74.0001 18.9531C73.4381 20.5573 72.5471 21.7812 71.3281 22.625C70.1201 23.4583 68.6041 23.875 66.7811 23.875C63.8961 23.875 61.7601 22.9323 60.3751 21.0469C59.2811 19.5365 58.7341 17.6302 58.7341 15.3281C58.7341 12.5781 59.4531 10.4271 60.8911 8.87502C62.3281 7.31252 64.146 6.53123 66.344 6.53123C68.812 6.53123 70.7601 7.34902 72.1881 8.98442C73.6151 10.6094 74.2971 13.1042 74.234 16.4688H63.234C63.266 17.7708 63.6201 18.7865 64.2971 19.5156C64.9741 20.2344 65.8181 20.5938 66.8281 20.5938C67.5161 20.5938 68.094 20.4062 68.562 20.0312C69.0311 19.6562 69.3851 19.0521 69.6251 18.2188ZM69.8751 13.7812C69.8441 12.5104 69.5161 11.5469 68.8911 10.8906C68.2661 10.224 67.5051 9.89062 66.609 9.89062C65.651 9.89062 64.859 10.2396 64.234 10.9375C63.609 11.6354 63.3021 12.5833 63.312 13.7812H69.8751ZM93.0471 23.5H88.969V21.0625C88.292 22.0104 87.4901 22.7188 86.562 23.1875C85.646 23.6458 84.7191 23.875 83.7811 23.875C81.8751 23.875 80.2401 23.1094 78.8751 21.5781C77.5211 20.0365 76.844 17.8906 76.844 15.1406C76.844 12.3281 77.5051 10.1927 78.8281 8.73442C80.1511 7.26562 81.823 6.53123 83.844 6.53123C85.698 6.53123 87.3021 7.30212 88.6561 8.84382V0.593824H93.0471V23.5ZM81.3281 14.8438C81.3281 16.6146 81.5731 17.8958 82.062 18.6875C82.771 19.8333 83.7601 20.4062 85.0311 20.4062C86.0421 20.4062 86.901 19.9792 87.609 19.125C88.318 18.2604 88.6721 16.974 88.6721 15.2656C88.6721 13.3594 88.3281 11.9896 87.6411 11.1562C86.9531 10.3125 86.0731 9.89062 85.0001 9.89062C83.9581 9.89062 83.0831 10.3073 82.3751 11.1406C81.6771 11.9635 81.3281 13.1979 81.3281 14.8438ZM108.312 23.5V21.0156C107.708 21.901 106.911 22.599 105.922 23.1094C104.943 23.6198 103.906 23.875 102.812 23.875C101.698 23.875 100.698 23.6302 99.812 23.1406C98.927 22.651 98.2861 21.9635 97.8911 21.0781C97.4951 20.1927 97.2971 18.9688 97.2971 17.4062V6.90623H101.688V14.5312C101.688 16.8646 101.766 18.2969 101.922 18.8281C102.089 19.349 102.385 19.7656 102.812 20.0781C103.24 20.3802 103.781 20.5312 104.438 20.5312C105.188 20.5312 105.859 20.3281 106.453 19.9219C107.047 19.5052 107.453 18.9948 107.672 18.3906C107.891 17.776 108 16.2812 108 13.9062V6.90623H112.391V23.5H108.312ZM116.953 23.5V0.593824H121.344V23.5H116.953ZM135.469 18.2188L139.844 18.9531C139.281 20.5573 138.391 21.7812 137.172 22.625C135.964 23.4583 134.448 23.875 132.625 23.875C129.74 23.875 127.604 22.9323 126.219 21.0469C125.125 19.5365 124.578 17.6302 124.578 15.3281C124.578 12.5781 125.297 10.4271 126.734 8.87502C128.172 7.31252 129.99 6.53123 132.188 6.53123C134.656 6.53123 136.604 7.34902 138.031 8.98442C139.458 10.6094 140.141 13.1042 140.078 16.4688H129.078C129.109 17.7708 129.464 18.7865 130.141 19.5156C130.818 20.2344 131.661 20.5938 132.672 20.5938C133.359 20.5938 133.938 20.4062 134.406 20.0312C134.875 19.6562 135.229 19.0521 135.469 18.2188ZM135.719 13.7812C135.688 12.5104 135.359 11.5469 134.734 10.8906C134.109 10.224 133.349 9.89062 132.453 9.89062C131.495 9.89062 130.703 10.2396 130.078 10.9375C129.453 11.6354 129.146 12.5833 129.156 13.7812H135.719ZM143.703 23.5V0.593824H151.125C153.938 0.593824 155.771 0.708325 156.625 0.937525C157.938 1.28122 159.036 2.03122 159.922 3.18752C160.807 4.33332 161.25 5.81773 161.25 7.64062C161.25 9.04692 160.995 10.2292 160.484 11.1875C159.974 12.1458 159.323 12.901 158.531 13.4531C157.75 13.9948 156.953 14.3542 156.141 14.5312C155.036 14.75 153.438 14.8594 151.344 14.8594H148.328V23.5H143.703ZM148.328 4.46882V10.9688H150.859C152.682 10.9688 153.901 10.849 154.516 10.6094C155.13 10.3698 155.609 9.99482 155.953 9.48442C156.307 8.97402 156.484 8.38023 156.484 7.70312C156.484 6.86982 156.24 6.18232 155.75 5.64062C155.26 5.09902 154.641 4.76042 153.891 4.62502C153.339 4.52082 152.229 4.46882 150.562 4.46882H148.328ZM169.219 23.5H164.828V6.90623H168.906V9.26562C169.604 8.15102 170.229 7.41672 170.781 7.06252C171.344 6.70832 171.979 6.53123 172.688 6.53123C173.688 6.53123 174.651 6.80732 175.578 7.35942L174.219 11.1875C173.479 10.7083 172.792 10.4688 172.156 10.4688C171.542 10.4688 171.021 10.6406 170.594 10.9844C170.167 11.3177 169.828 11.9271 169.578 12.8125C169.339 13.6979 169.219 15.5521 169.219 18.375V23.5ZM176.469 14.9688C176.469 13.5104 176.828 12.099 177.547 10.7344C178.266 9.36982 179.281 8.32812 180.594 7.60942C181.917 6.89062 183.391 6.53123 185.016 6.53123C187.526 6.53123 189.583 7.34902 191.188 8.98442C192.792 10.6094 193.594 12.6667 193.594 15.1562C193.594 17.6667 192.781 19.75 191.156 21.4062C189.542 23.0521 187.505 23.875 185.047 23.875C183.526 23.875 182.073 23.5312 180.688 22.8438C179.312 22.1562 178.266 21.151 177.547 19.8281C176.828 18.4948 176.469 16.875 176.469 14.9688ZM180.969 15.2031C180.969 16.849 181.359 18.1094 182.141 18.9844C182.922 19.8594 183.885 20.2969 185.031 20.2969C186.177 20.2969 187.135 19.8594 187.906 18.9844C188.688 18.1094 189.078 16.8385 189.078 15.1719C189.078 13.5469 188.688 12.2969 187.906 11.4219C187.135 10.5469 186.177 10.1094 185.031 10.1094C183.885 10.1094 182.922 10.5469 182.141 11.4219C181.359 12.2969 180.969 13.5573 180.969 15.2031Z" fill="black"/>
</svg>
