<svg width="330" height="275" viewBox="0 0 330 275" fill="none" xmlns="http://www.w3.org/2000/svg">
<path opacity="0.3" d="M76.1583 242H287.02C296.612 242 304.812 233.367 305.706 221.986V221.766C306.153 215.882 305.06 209.339 301.184 205.71C298.053 202.796 293.729 202.191 290.748 199.057C286.175 194.218 286.722 185.641 287.915 178.548C290.251 164.472 293.53 150.615 297.804 137.199C300.09 129.941 302.724 122.408 302.029 114.71C301.83 112.786 301.432 110.751 300.289 109.322C296.612 104.813 289.754 109.927 285.082 107.013C280.957 104.428 280.957 97.3902 282.051 92.0017C284.535 79.6301 289.406 66.2138 284.585 54.887C280.46 45.1547 270.72 41.0308 261.725 38.9414C249.35 36.0822 236.479 35.4774 224.154 38.8315C210.09 42.6804 197.368 51.5329 183.652 56.9764C169.935 62.3649 153.734 63.7395 142.105 53.6223C136.639 48.8937 132.613 41.9656 126.849 37.7867C120.09 32.9481 111.691 32.4532 103.839 33.388C89.3279 35.1475 75.1644 41.4707 63.287 51.5329C59.9573 54.3371 56.578 57.8012 55.584 62.5849C53.795 71.2175 60.4543 78.5854 65.076 85.5685C73.2263 97.7751 76.3074 114.6 73.1269 129.721C69.6481 146.327 59.4603 159.908 54.6895 176.018C49.8689 192.239 50.9126 210.824 57.5719 226.164C58.5161 228.309 59.5597 230.398 60.6531 232.378C64.1815 238.426 69.996 242 76.1583 242Z" fill="#D2D2D3"/>
<path d="M108.405 84.315H86.515C86.405 84.315 86.295 84.205 86.295 84.095C86.295 83.985 86.405 83.875 86.515 83.875H108.405C108.515 83.875 108.625 83.985 108.625 84.095C108.625 84.205 108.515 84.315 108.405 84.315ZM108.405 95.15H86.515C86.405 95.15 86.295 95.04 86.295 94.93C86.295 94.82 86.405 94.71 86.515 94.71H108.405C108.515 94.71 108.625 94.82 108.625 94.93C108.625 95.04 108.515 95.15 108.405 95.15ZM104.445 89.705H73.48C73.37 89.705 73.26 89.595 73.26 89.485C73.26 89.375 73.37 89.265 73.48 89.265H104.445C104.555 89.265 104.665 89.375 104.665 89.485C104.665 89.595 104.555 89.705 104.445 89.705Z" fill="#FFF0C0"/>
<path d="M91.025 84.315C90.915 84.315 90.805 84.205 90.805 84.095V79.475C90.805 79.365 90.915 79.255 91.025 79.255C91.135 79.255 91.245 79.365 91.245 79.475V84.095C91.245 84.205 91.135 84.315 91.025 84.315ZM98.725 89.705C98.615 89.705 98.505 89.595 98.505 89.485V84.04C98.505 83.93 98.615 83.82 98.725 83.82C98.835 83.82 98.945 83.93 98.945 84.04V89.485C98.945 89.595 98.835 89.705 98.725 89.705ZM92.895 94.93C92.785 94.93 92.675 94.82 92.675 94.71V89.485C92.675 89.375 92.785 89.265 92.895 89.265C93.005 89.265 93.115 89.375 93.115 89.485V94.71C93.06 94.875 93.005 94.93 92.895 94.93Z" fill="#FFF0C0"/>
<path d="M135.96 127.6C134.475 127.49 133.045 127.27 131.56 126.995L131.67 126.445C133.1 126.72 134.585 126.885 136.015 126.995L135.96 127.6ZM127.27 125.95C125.895 125.51 124.465 125.015 123.09 124.465L123.31 123.97C124.685 124.52 126.06 125.015 127.435 125.455L127.27 125.95ZM119.075 122.54C117.81 121.88 116.49 121.11 115.28 120.285L115.555 119.845C116.82 120.67 118.085 121.385 119.35 122.045L119.075 122.54ZM111.65 117.755C110.495 116.875 109.34 115.94 108.24 114.95L108.625 114.565C109.725 115.555 110.88 116.49 111.98 117.37L111.65 117.755ZM105.05 111.925C104.06 110.88 103.015 109.78 102.08 108.68L102.52 108.295C103.51 109.395 104.5 110.495 105.49 111.54L105.05 111.925ZM99.275 105.215C98.395 104.06 97.515 102.85 96.69 101.64L97.13 101.31C97.955 102.52 98.835 103.73 99.715 104.885L99.275 105.215ZM94.325 97.9L94.215 97.735C93.5 96.525 92.785 95.26 92.18 94.05L92.675 93.775C93.28 94.985 93.995 96.195 94.71 97.405L94.82 97.57L94.325 97.9ZM90.255 90.09C89.65 88.715 89.1 87.34 88.605 86.02L89.1 85.855C89.595 87.175 90.145 88.55 90.75 89.925L90.255 90.09ZM87.23 81.785C86.845 80.355 86.515 78.87 86.24 77.495L86.79 77.385C87.065 78.815 87.34 80.245 87.78 81.675L87.23 81.785ZM246.95 77.055V76.505C248.435 76.45 249.865 76.34 251.295 76.175L251.35 76.725C249.92 76.89 248.435 77 246.95 77.055ZM242.495 77C241.01 76.945 239.525 76.78 238.095 76.56L238.15 76.01C239.58 76.23 241.065 76.34 242.495 76.45V77ZM255.695 76.01L255.585 75.46C257.015 75.13 258.445 74.745 259.82 74.305L259.985 74.8C258.61 75.295 257.18 75.68 255.695 76.01ZM233.75 75.79C232.32 75.46 230.89 75.075 229.46 74.69L229.625 74.14C231.055 74.58 232.485 74.91 233.86 75.24L233.75 75.79ZM225.28 73.26C223.905 72.765 222.53 72.215 221.155 71.665L221.375 71.17C222.75 71.775 224.125 72.27 225.445 72.765L225.28 73.26ZM264.11 73.205L263.89 72.71C265.21 72.105 266.53 71.39 267.74 70.675L268.015 71.17C266.805 71.885 265.485 72.6 264.11 73.205ZM85.69 73.095C85.635 72.16 85.58 71.225 85.58 70.345C85.58 69.795 85.58 69.245 85.635 68.695H86.185C86.185 69.245 86.13 69.795 86.13 70.345C86.13 71.225 86.185 72.16 86.24 73.095H85.69ZM217.195 69.85C215.93 69.245 214.61 68.585 213.235 67.87L213.51 67.375C214.83 68.09 216.15 68.75 217.415 69.355L217.195 69.85ZM271.645 68.53L271.315 68.09C272.25 67.32 273.185 66.495 274.01 65.615L274.395 66C273.515 66.935 272.58 67.76 271.645 68.53ZM209.385 65.725C208.175 65.01 206.91 64.295 205.59 63.47L205.865 62.975C207.185 63.745 208.45 64.515 209.66 65.23L209.385 65.725ZM86.625 64.35L86.075 64.24C86.295 62.755 86.68 61.325 87.065 59.895L87.615 60.06C87.175 61.49 86.845 62.92 86.625 64.35ZM201.85 61.16C200.585 60.39 199.375 59.565 198.165 58.795L198.44 58.355C199.65 59.18 200.915 59.95 202.125 60.72L201.85 61.16ZM194.425 56.375L190.74 53.955L191.015 53.515L194.7 55.935L194.425 56.375ZM89.155 56.045L88.66 55.825C89.265 54.45 90.035 53.185 90.805 51.975L91.245 52.305C90.475 53.405 89.76 54.67 89.155 56.045ZM187.11 51.535C185.9 50.765 184.635 49.94 183.425 49.17L183.7 48.73C184.965 49.5 186.175 50.325 187.44 51.095L187.11 51.535ZM93.94 48.785L93.555 48.4C94.545 47.355 95.645 46.365 96.8 45.375L97.13 45.815C95.975 46.805 94.93 47.795 93.94 48.785ZM179.63 46.915C178.31 46.145 177.045 45.375 175.835 44.715L176.11 44.22C177.32 44.935 178.585 45.65 179.905 46.42L179.63 46.915ZM100.76 43.34L100.485 42.9C101.695 42.185 102.96 41.415 104.335 40.7L104.61 41.195C103.18 41.91 101.915 42.625 100.76 43.34ZM171.985 42.625C170.665 41.91 169.345 41.305 168.025 40.7L168.245 40.205C169.51 40.81 170.885 41.47 172.205 42.13L171.985 42.625ZM108.515 39.325L108.295 38.83C109.615 38.225 111.045 37.73 112.42 37.235L112.585 37.73C111.21 38.225 109.835 38.775 108.515 39.325ZM164.01 38.94C162.635 38.39 161.26 37.84 159.885 37.4L160.05 36.905C161.425 37.345 162.8 37.895 164.175 38.445L164.01 38.94ZM116.765 36.41L116.6 35.86C117.975 35.475 119.46 35.09 120.89 34.76L121 35.31C119.57 35.64 118.14 35.97 116.765 36.41ZM155.705 36.08C154.33 35.695 152.9 35.365 151.47 35.035L151.58 34.485C153.01 34.76 154.44 35.145 155.87 35.53L155.705 36.08ZM125.29 34.485L125.18 33.935C126.61 33.715 128.095 33.495 129.58 33.385L129.635 33.935C128.205 34.045 126.72 34.265 125.29 34.485ZM147.125 34.32C145.695 34.1 144.21 33.935 142.78 33.825L142.835 33.275C144.32 33.385 145.805 33.55 147.235 33.77L147.125 34.32ZM134.035 33.605V33.055C135.52 33 137.005 33 138.435 33V33.55C136.95 33.55 135.465 33.55 134.035 33.605Z" fill="black"/>
<path d="M248.93 56.0451V205.975C248.93 206.415 248.875 206.855 248.82 207.24C248.215 210.21 245.465 212.465 242.165 212.465H118.58C114.84 212.465 111.815 209.55 111.815 205.975V56.0451C111.815 53.6801 113.135 51.6451 115.06 50.4901C115.445 50.2701 115.83 50.1051 116.27 49.9401L116.93 49.7751C117.48 49.6651 118.03 49.5551 118.635 49.5551H242.165C242.77 49.5551 243.32 49.6101 243.87 49.7751L244.53 49.9401C244.97 50.1051 245.355 50.2701 245.74 50.4901C246.4 50.8751 246.95 51.3701 247.445 51.9201C247.555 52.0851 247.72 52.2501 247.83 52.4151C248.49 53.4601 248.93 54.7251 248.93 56.0451Z" fill="#C9CACC"/>
<path d="M121.935 57.035C121.935 58.135 121 59.015 119.845 59.015C118.69 59.015 117.755 58.135 117.755 57.035C117.755 55.935 118.69 55.055 119.845 55.055C121 55 121.935 55.935 121.935 57.035ZM133.65 57.035C133.65 58.135 132.715 59.015 131.56 59.015C130.405 59.015 129.47 58.135 129.47 57.035C129.47 55.935 130.405 55.055 131.56 55.055C132.715 55.055 133.65 55.935 133.65 57.035ZM127.82 57.035C127.82 58.135 126.885 59.015 125.73 59.015C124.575 59.015 123.64 58.135 123.64 57.035C123.64 55.935 124.575 55.055 125.73 55.055C126.885 55 127.82 55.935 127.82 57.035ZM123.145 198.715C122.815 198.715 122.595 198.495 122.595 198.165V75.625C122.595 75.295 122.815 75.075 123.145 75.075C123.475 75.075 123.695 75.295 123.695 75.625V198.165C123.695 198.44 123.42 198.715 123.145 198.715ZM145.97 198.715C145.64 198.715 145.42 198.495 145.42 198.165V75.625C145.42 75.295 145.64 75.075 145.97 75.075C146.3 75.075 146.52 75.295 146.52 75.625V198.165C146.52 198.44 146.3 198.715 145.97 198.715ZM168.795 198.715C168.465 198.715 168.245 198.495 168.245 198.165V75.625C168.245 75.295 168.465 75.075 168.795 75.075C169.125 75.075 169.345 75.295 169.345 75.625V198.165C169.345 198.44 169.125 198.715 168.795 198.715ZM191.675 198.715C191.345 198.715 191.125 198.495 191.125 198.165V75.625C191.125 75.295 191.345 75.075 191.675 75.075C192.005 75.075 192.225 75.295 192.225 75.625V198.165C192.225 198.44 191.95 198.715 191.675 198.715ZM214.5 198.715C214.17 198.715 213.95 198.495 213.95 198.165V75.625C213.95 75.295 214.17 75.075 214.5 75.075C214.83 75.075 215.05 75.295 215.05 75.625V198.165C215.05 198.44 214.83 198.715 214.5 198.715ZM237.325 198.715C236.995 198.715 236.775 198.495 236.775 198.165V75.625C236.775 75.295 236.995 75.075 237.325 75.075C237.655 75.075 237.875 75.295 237.875 75.625V198.165C237.875 198.44 237.655 198.715 237.325 198.715Z" fill="white"/>
<path d="M237.325 76.2851H123.145C122.815 76.2851 122.595 76.0651 122.595 75.7351C122.595 75.4051 122.815 75.1851 123.145 75.1851H237.38C237.71 75.1851 237.93 75.4051 237.93 75.7351C237.93 76.0651 237.655 76.2851 237.325 76.2851ZM237.325 93.7751H123.145C122.815 93.7751 122.595 93.5551 122.595 93.2251C122.595 92.8951 122.815 92.6751 123.145 92.6751H237.38C237.71 92.6751 237.93 92.8951 237.93 93.2251C237.93 93.5551 237.655 93.7751 237.325 93.7751ZM237.325 111.265H123.145C122.815 111.265 122.595 111.045 122.595 110.715C122.595 110.385 122.815 110.165 123.145 110.165H237.38C237.71 110.165 237.93 110.385 237.93 110.715C237.93 111.045 237.655 111.265 237.325 111.265ZM237.325 128.755H123.145C122.815 128.755 122.595 128.535 122.595 128.205C122.595 127.875 122.815 127.655 123.145 127.655H237.38C237.71 127.655 237.93 127.875 237.93 128.205C237.93 128.535 237.655 128.755 237.325 128.755ZM237.325 146.245H123.145C122.815 146.245 122.595 146.025 122.595 145.695C122.595 145.365 122.815 145.145 123.145 145.145H237.38C237.71 145.145 237.93 145.365 237.93 145.695C237.93 146.025 237.655 146.245 237.325 146.245ZM237.325 163.735H123.145C122.815 163.735 122.595 163.515 122.595 163.185C122.595 162.855 122.815 162.635 123.145 162.635H237.38C237.71 162.635 237.93 162.855 237.93 163.185C237.93 163.515 237.655 163.735 237.325 163.735ZM237.325 181.225H123.145C122.815 181.225 122.595 181.005 122.595 180.675C122.595 180.345 122.815 180.125 123.145 180.125H237.38C237.71 180.125 237.93 180.345 237.93 180.675C237.93 181.005 237.655 181.225 237.325 181.225ZM237.325 198.715H123.145C122.815 198.715 122.595 198.495 122.595 198.165C122.595 197.835 122.815 197.615 123.145 197.615H237.38C237.71 197.615 237.93 197.835 237.93 198.165C237.93 198.495 237.655 198.715 237.325 198.715ZM137.06 86.1851H131.725C130.845 86.1851 130.13 85.4701 130.13 84.5901V84.4801C130.13 83.6001 130.845 82.8851 131.725 82.8851H137.06C137.94 82.8851 138.655 83.6001 138.655 84.4801V84.5901C138.655 85.4701 137.94 86.1851 137.06 86.1851ZM159.94 86.1851H154.55C153.67 86.1851 152.955 85.4701 152.955 84.5901V84.4801C152.955 83.6001 153.67 82.8851 154.55 82.8851H159.885C160.765 82.8851 161.48 83.6001 161.48 84.4801V84.5901C161.535 85.4701 160.82 86.1851 159.94 86.1851ZM182.765 86.1851H177.43C176.55 86.1851 175.835 85.4701 175.835 84.5901V84.4801C175.835 83.6001 176.55 82.8851 177.43 82.8851H182.765C183.645 82.8851 184.36 83.6001 184.36 84.4801V84.5901C184.415 85.4701 183.645 86.1851 182.765 86.1851ZM205.645 86.1851H200.31C199.43 86.1851 198.715 85.4701 198.715 84.5901V84.4801C198.715 83.6001 199.43 82.8851 200.31 82.8851H205.645C206.525 82.8851 207.24 83.6001 207.24 84.4801V84.5901C207.24 85.4701 206.525 86.1851 205.645 86.1851ZM228.525 86.1851H223.19C222.31 86.1851 221.595 85.4701 221.595 84.5901V84.4801C221.595 83.6001 222.31 82.8851 223.19 82.8851H228.525C229.405 82.8851 230.12 83.6001 230.12 84.4801V84.5901C230.12 85.4701 229.405 86.1851 228.525 86.1851ZM198.055 114.235H208.45V124.63H198.055V114.235Z" fill="white"/>
<path d="M203.225 116.875C203.65 116.875 203.995 116.53 203.995 116.105C203.995 115.68 203.65 115.335 203.225 115.335C202.8 115.335 202.455 115.68 202.455 116.105C202.455 116.53 202.8 116.875 203.225 116.875Z" fill="#C9CACC"/>
<path d="M199.65 119.075H206.745V119.955H199.65V119.075ZM199.65 120.945H203.665V121.825H199.65V120.945Z" fill="#C9CACC"/>
<path d="M152.075 149.71H162.47V160.105H152.075V149.71Z" fill="white"/>
<path d="M157.245 152.295C157.67 152.295 158.015 151.95 158.015 151.525C158.015 151.1 157.67 150.755 157.245 150.755C156.82 150.755 156.475 151.1 156.475 151.525C156.475 151.95 156.82 152.295 157.245 152.295Z" fill="#C9CACC"/>
<path d="M153.67 154.55H160.765V155.43H153.67V154.55ZM153.67 156.42H157.685V157.3H153.67V156.42Z" fill="#C9CACC"/>
<path d="M198.495 166.43H208.89V176.825H198.495V166.43Z" fill="#060405"/>
<path d="M203.665 169.015C204.09 169.015 204.435 168.67 204.435 168.245C204.435 167.82 204.09 167.475 203.665 167.475C203.24 167.475 202.895 167.82 202.895 168.245C202.895 168.67 203.24 169.015 203.665 169.015Z" fill="white"/>
<path d="M200.09 171.215H207.185V172.095H200.09V171.215ZM200.09 173.085H204.105V173.965H200.09V173.085Z" fill="white"/>
<path d="M129.855 96.8H140.25V107.195H129.855V96.8Z" fill="#FFEEC8"/>
<path d="M135.08 99.385C135.505 99.385 135.85 99.0402 135.85 98.615C135.85 98.1897 135.505 97.845 135.08 97.845C134.655 97.845 134.31 98.1897 134.31 98.615C134.31 99.0402 134.655 99.385 135.08 99.385Z" fill="white"/>
<path d="M131.505 101.585H138.6V102.465H131.505V101.585ZM131.505 103.51H135.52V104.39H131.505V103.51Z" fill="white"/>
<path opacity="0.1" d="M138.6 139.81V155.43C138.6 156.475 137.775 157.3 136.73 157.3H111.76V137.995H136.73C137.775 137.94 138.6 138.82 138.6 139.81Z" fill="black"/>
<path d="M135.74 156.035H106.59C105.545 156.035 104.72 155.21 104.72 154.165V138.545C104.72 137.5 105.545 136.675 106.59 136.675H135.74C136.785 136.675 137.61 137.5 137.61 138.545V154.165C137.61 155.21 136.785 156.035 135.74 156.035Z" fill="#BD9C52"/>
<path d="M112.035 151.745C114.678 151.745 116.82 149.603 116.82 146.96C116.82 144.317 114.678 142.175 112.035 142.175C109.392 142.175 107.25 144.317 107.25 146.96C107.25 149.603 109.392 151.745 112.035 151.745Z" fill="white"/>
<path d="M110.715 148.995L109.67 147.95C109.505 147.785 109.505 147.455 109.67 147.29C109.835 147.125 110.165 147.125 110.33 147.29L111.045 148.005L114.125 144.925C114.29 144.76 114.62 144.76 114.785 144.925C114.95 145.09 114.95 145.42 114.785 145.585L111.375 148.995C111.155 149.16 110.88 149.16 110.715 148.995Z" fill="#060405"/>
<path d="M133.375 145.97H120.725C120.34 145.97 120.065 145.64 120.065 145.31V145.09C120.065 144.705 120.395 144.43 120.725 144.43H133.375C133.76 144.43 134.035 144.76 134.035 145.09V145.31C134.035 145.64 133.76 145.97 133.375 145.97ZM125.95 149.325H120.725C120.34 149.325 120.065 148.995 120.065 148.665V148.445C120.065 148.06 120.395 147.785 120.725 147.785H125.95C126.335 147.785 126.61 148.115 126.61 148.445V148.665C126.61 149.05 126.335 149.325 125.95 149.325Z" fill="white"/>
<path opacity="0.1" d="M248.93 99.33V120.615H225.94C224.895 120.615 224.07 119.79 224.07 118.745V101.145C224.07 100.1 224.895 99.275 225.94 99.275H248.93V99.33Z" fill="black"/>
<path d="M260.15 119.075H227.645C226.6 119.075 225.775 118.25 225.775 117.205V99.605C225.775 98.56 226.6 97.735 227.645 97.735H260.15C261.195 97.735 262.02 98.56 262.02 99.605V117.205C262.02 118.25 261.195 119.075 260.15 119.075Z" fill="#F2D579"/>
<path d="M233.86 114.345C236.776 114.345 239.14 111.981 239.14 109.065C239.14 106.149 236.776 103.785 233.86 103.785C230.944 103.785 228.58 106.149 228.58 109.065C228.58 111.981 230.944 114.345 233.86 114.345Z" fill="white"/>
<path d="M232.375 111.32L231.22 110.165C231 109.945 231 109.615 231.22 109.45C231.44 109.23 231.77 109.23 231.935 109.45L232.705 110.22L236.06 106.865C236.28 106.645 236.61 106.645 236.775 106.865C236.995 107.085 236.995 107.415 236.775 107.58L233.035 111.32C232.925 111.485 232.595 111.485 232.375 111.32Z" fill="#060405"/>
<path d="M257.4 107.965H243.375C242.99 107.965 242.715 107.635 242.715 107.305V106.92C242.715 106.535 243.045 106.26 243.375 106.26H257.4C257.785 106.26 258.06 106.59 258.06 106.92V107.305C258.06 107.69 257.785 107.965 257.4 107.965ZM249.26 111.705H243.375C242.99 111.705 242.715 111.375 242.715 111.045V110.66C242.715 110.275 243.045 110 243.375 110H249.26C249.645 110 249.92 110.33 249.92 110.66V111.045C249.92 111.43 249.645 111.705 249.26 111.705ZM228.525 155.815C228.415 155.925 228.36 156.09 228.36 156.255L228.855 159.06C228.91 159.445 228.525 159.775 228.14 159.555L225.61 158.235C225.445 158.18 225.28 158.18 225.17 158.235L222.64 159.555C222.31 159.72 221.87 159.445 221.925 159.06L222.42 156.255C222.475 156.09 222.42 155.925 222.255 155.815L220.22 153.835C219.945 153.56 220.11 153.065 220.495 153.01L223.3 152.625C223.465 152.625 223.575 152.515 223.685 152.35L224.95 149.765C225.115 149.38 225.665 149.38 225.83 149.765L227.095 152.35C227.15 152.515 227.315 152.57 227.48 152.625L230.285 153.01C230.67 153.065 230.835 153.56 230.56 153.835L228.525 155.815ZM160.38 138.765C160.27 138.875 160.215 139.04 160.215 139.205L160.71 142.01C160.765 142.395 160.38 142.725 159.995 142.505L157.465 141.185C157.3 141.13 157.135 141.13 157.025 141.185L154.495 142.505C154.165 142.67 153.725 142.395 153.78 142.01L154.275 139.205C154.33 139.04 154.275 138.875 154.11 138.765L152.075 136.785C151.8 136.51 151.965 136.015 152.35 135.96L155.155 135.575C155.32 135.575 155.43 135.465 155.54 135.3L156.805 132.715C156.97 132.33 157.52 132.33 157.685 132.715L158.95 135.3C159.005 135.465 159.17 135.52 159.335 135.575L162.14 135.96C162.525 136.015 162.69 136.51 162.415 136.785L160.38 138.765ZM138.16 173.36C138.05 173.47 137.995 173.635 137.995 173.8L138.49 176.605C138.545 176.99 138.16 177.32 137.775 177.1L135.245 175.78C135.08 175.725 134.915 175.725 134.805 175.78L132.275 177.1C131.945 177.265 131.505 176.99 131.56 176.605L132.055 173.8C132.11 173.635 132.055 173.47 131.89 173.36L129.855 171.38C129.58 171.105 129.745 170.61 130.13 170.555L132.935 170.17C133.1 170.17 133.21 170.06 133.32 169.895L134.585 167.31C134.75 166.925 135.3 166.925 135.465 167.31L136.73 169.895C136.785 170.06 136.95 170.115 137.115 170.17L139.92 170.555C140.305 170.61 140.47 171.105 140.195 171.38L138.16 173.36Z" fill="white"/>
<path opacity="0.1" d="M248.27 175.505H239.965C239.58 172.81 237.6 170.775 235.235 170.775C232.87 170.775 230.89 172.81 230.505 175.505H223.52C221.65 175.505 220.165 176.99 220.165 178.86V212.52H242.11C245.41 212.52 248.16 210.265 248.765 207.295C248.82 206.855 248.875 206.47 248.875 206.03V173.525C248.6 174.13 248.38 174.79 248.27 175.505ZM231.605 175.505C231.935 173.415 233.475 171.875 235.235 171.875C237.05 171.875 238.535 173.415 238.865 175.505H231.605Z" fill="#060405"/>
<path d="M242.935 180.455C242.605 180.455 242.385 180.235 242.385 179.905C242.385 177.375 240.735 175.34 238.645 175.34C238.315 175.34 238.095 175.12 238.095 174.79C238.095 174.46 238.315 174.24 238.645 174.24C241.285 174.24 243.485 176.77 243.485 179.905C243.485 180.235 243.265 180.455 242.935 180.455ZM260.755 180.455C260.425 180.455 260.205 180.235 260.205 179.905C260.205 177.375 258.555 175.34 256.465 175.34C256.135 175.34 255.915 175.12 255.915 174.79C255.915 174.46 256.135 174.24 256.465 174.24C259.105 174.24 261.305 176.77 261.305 179.905C261.305 180.235 261.03 180.455 260.755 180.455ZM278.52 180.455C278.19 180.455 277.97 180.235 277.97 179.905C277.97 177.375 276.32 175.34 274.23 175.34C273.9 175.34 273.68 175.12 273.68 174.79C273.68 174.46 273.9 174.24 274.23 174.24C276.87 174.24 279.07 176.77 279.07 179.905C279.07 180.235 278.85 180.455 278.52 180.455ZM296.34 180.455C296.01 180.455 295.79 180.235 295.79 179.905C295.79 177.375 294.14 175.34 292.05 175.34C291.72 175.34 291.5 175.12 291.5 174.79C291.5 174.46 291.72 174.24 292.05 174.24C294.69 174.24 296.89 176.77 296.89 179.905C296.89 180.235 296.615 180.455 296.34 180.455Z" fill="#060405"/>
<path d="M305.36 182.325V238.535C305.36 240.405 303.875 241.89 302.005 241.89H226.985C225.115 241.89 223.63 240.405 223.63 238.535V182.325C223.63 180.455 225.115 178.97 226.985 178.97H302.06C303.875 178.97 305.36 180.455 305.36 182.325Z" fill="#F2D579"/>
<path d="M303.38 189.97V182.27C303.38 181.5 302.775 180.895 302.005 180.895H226.985C226.215 180.895 225.61 181.5 225.61 182.27V189.97H303.38Z" fill="white"/>
<path d="M238.7 187.11C239.854 187.11 240.79 186.174 240.79 185.02C240.79 183.866 239.854 182.93 238.7 182.93C237.546 182.93 236.61 183.866 236.61 185.02C236.61 186.174 237.546 187.11 238.7 187.11Z" fill="#C9CACC"/>
<path d="M256.19 187.11C257.344 187.11 258.28 186.174 258.28 185.02C258.28 183.866 257.344 182.93 256.19 182.93C255.036 182.93 254.1 183.866 254.1 185.02C254.1 186.174 255.036 187.11 256.19 187.11Z" fill="#C9CACC"/>
<path d="M273.735 187.11C274.889 187.11 275.825 186.174 275.825 185.02C275.825 183.866 274.889 182.93 273.735 182.93C272.581 182.93 271.645 183.866 271.645 185.02C271.645 186.174 272.581 187.11 273.735 187.11Z" fill="#C9CACC"/>
<path d="M291.28 187.11C292.434 187.11 293.37 186.174 293.37 185.02C293.37 183.866 292.434 182.93 291.28 182.93C290.126 182.93 289.19 183.866 289.19 185.02C289.19 186.174 290.126 187.11 291.28 187.11Z" fill="#C9CACC"/>
<path d="M238.7 185.57C236.06 185.57 233.86 183.04 233.86 179.905C233.86 176.77 236.005 174.24 238.7 174.24C239.03 174.24 239.25 174.46 239.25 174.79C239.25 175.12 239.03 175.34 238.7 175.34C236.665 175.34 234.96 177.375 234.96 179.905C234.96 182.435 236.61 184.47 238.7 184.47C239.03 184.47 239.25 184.69 239.25 185.02C239.25 185.35 238.975 185.57 238.7 185.57ZM256.465 185.57C253.825 185.57 251.625 183.04 251.625 179.905C251.625 176.77 253.77 174.24 256.465 174.24C256.795 174.24 257.015 174.46 257.015 174.79C257.015 175.12 256.795 175.34 256.465 175.34C254.43 175.34 252.725 177.375 252.725 179.905C252.725 182.435 254.375 184.47 256.465 184.47C256.795 184.47 257.015 184.69 257.015 185.02C257.015 185.35 256.795 185.57 256.465 185.57ZM274.285 185.57C271.645 185.57 269.445 183.04 269.445 179.905C269.445 176.77 271.59 174.24 274.285 174.24C274.615 174.24 274.835 174.46 274.835 174.79C274.835 175.12 274.615 175.34 274.285 175.34C272.25 175.34 270.545 177.375 270.545 179.905C270.545 182.435 272.195 184.47 274.285 184.47C274.615 184.47 274.835 184.69 274.835 185.02C274.835 185.35 274.56 185.57 274.285 185.57ZM292.05 185.57C289.41 185.57 287.21 183.04 287.21 179.905C287.21 176.77 289.355 174.24 292.05 174.24C292.38 174.24 292.6 174.46 292.6 174.79C292.6 175.12 292.38 175.34 292.05 175.34C290.015 175.34 288.31 177.375 288.31 179.905C288.31 182.435 289.96 184.47 292.05 184.47C292.38 184.47 292.6 184.69 292.6 185.02C292.6 185.35 292.38 185.57 292.05 185.57Z" fill="#060405"/>
<path d="M245.19 197.34H255.145V207.295H245.19V197.34ZM259.49 197.34H269.445V207.295H259.49V197.34ZM273.845 197.34H283.8V207.295H273.845V197.34ZM288.145 197.34H298.1V207.295H288.145V197.34ZM230.89 210.925H240.845V220.88H230.89V210.925ZM245.19 210.925H255.145V220.88H245.19V210.925ZM259.49 210.925H269.445V220.88H259.49V210.925ZM273.845 210.925H283.8V220.88H273.845V210.925ZM288.145 210.925H298.1V220.88H288.145V210.925ZM230.89 224.51H240.845V234.465H230.89V224.51ZM245.19 224.51H255.145V234.465H245.19V224.51ZM259.49 224.51H269.445V234.465H259.49V224.51Z" fill="white"/>
<path d="M262.79 218.625L261.25 217.085C260.975 216.81 260.975 216.37 261.25 216.095C261.525 215.82 261.965 215.82 262.24 216.095L263.285 217.14L267.19 213.235C267.465 212.96 267.905 212.96 268.18 213.235C268.455 213.51 268.455 213.95 268.18 214.225L263.78 218.625C263.505 218.9 263.065 218.9 262.79 218.625Z" fill="#060405"/>
<path d="M268.785 43.1201H246.895C246.785 43.1201 246.675 43.0101 246.675 42.9001C246.675 42.7901 246.785 42.6801 246.895 42.6801H268.785C268.895 42.6801 269.005 42.7901 269.005 42.9001C269.005 43.0101 268.895 43.1201 268.785 43.1201ZM268.785 53.9551H246.895C246.785 53.9551 246.675 53.8451 246.675 53.7351C246.675 53.6251 246.785 53.5151 246.895 53.5151H268.785C268.895 53.5151 269.005 53.6251 269.005 53.7351C269.005 53.8451 268.895 53.9551 268.785 53.9551ZM264.825 48.5101H233.86C233.75 48.5101 233.64 48.4001 233.64 48.2901C233.64 48.1801 233.75 48.0701 233.86 48.0701H264.825C264.935 48.0701 265.045 48.1801 265.045 48.2901C265.045 48.4001 264.935 48.5101 264.825 48.5101Z" fill="#FFF0C0"/>
<path d="M251.405 43.1201C251.295 43.1201 251.185 43.0101 251.185 42.9001V38.2801C251.185 38.1701 251.295 38.0601 251.405 38.0601C251.515 38.0601 251.625 38.1701 251.625 38.2801V42.9001C251.625 43.0101 251.515 43.1201 251.405 43.1201ZM259.105 48.5101C258.995 48.5101 258.885 48.4001 258.885 48.2901V42.9001C258.885 42.7901 258.995 42.6801 259.105 42.6801C259.215 42.6801 259.325 42.7901 259.325 42.9001V48.3451C259.325 48.4001 259.215 48.5101 259.105 48.5101ZM253.275 53.7351C253.165 53.7351 253.055 53.6251 253.055 53.5151V48.2901C253.055 48.1801 253.165 48.0701 253.275 48.0701C253.385 48.0701 253.495 48.1801 253.495 48.2901V53.5151C253.44 53.6801 253.385 53.7351 253.275 53.7351Z" fill="#FFF0C0"/>
<path d="M278.905 73.0401L292.27 44.9351L273.295 53.4601L275.66 58.6851L283.855 53.2401L276.925 63.5251L278.905 73.0401Z" fill="#C9CACC"/>
<path d="M275.66 58.685L279.51 59.675L283.855 53.24L275.66 58.685Z" fill="#060405"/>
<path d="M166.65 220.715H144.76C144.65 220.715 144.54 220.605 144.54 220.495C144.54 220.385 144.65 220.275 144.76 220.275H166.65C166.76 220.275 166.87 220.385 166.87 220.495C166.87 220.605 166.815 220.715 166.65 220.715ZM166.65 231.55H144.76C144.65 231.55 144.54 231.44 144.54 231.33C144.54 231.22 144.65 231.11 144.76 231.11H166.65C166.76 231.11 166.87 231.22 166.87 231.33C166.87 231.44 166.815 231.55 166.65 231.55ZM162.69 226.16H131.725C131.615 226.16 131.505 226.05 131.505 225.94C131.505 225.83 131.615 225.72 131.725 225.72H162.69C162.8 225.72 162.91 225.83 162.91 225.94C162.91 226.05 162.8 226.16 162.69 226.16Z" fill="#FFF0C0"/>
<path d="M149.325 220.715C149.215 220.715 149.105 220.605 149.105 220.495V215.875C149.105 215.765 149.215 215.655 149.325 215.655C149.435 215.655 149.545 215.765 149.545 215.875V220.495C149.49 220.605 149.435 220.715 149.325 220.715ZM156.97 226.16C156.86 226.16 156.75 226.05 156.75 225.94V220.495C156.75 220.385 156.86 220.275 156.97 220.275C157.08 220.275 157.19 220.385 157.19 220.495V225.94C157.19 226.05 157.08 226.16 156.97 226.16ZM151.14 231.385C151.03 231.385 150.92 231.275 150.92 231.165V225.94C150.92 225.83 151.03 225.72 151.14 225.72C151.25 225.72 151.36 225.83 151.36 225.94V231.165C151.36 231.275 151.25 231.385 151.14 231.385ZM289.575 140.03H267.685C267.575 140.03 267.465 139.92 267.465 139.81C267.465 139.7 267.575 139.59 267.685 139.59H289.575C289.685 139.59 289.795 139.7 289.795 139.81C289.795 139.92 289.685 140.03 289.575 140.03ZM289.575 150.865H267.685C267.575 150.865 267.465 150.755 267.465 150.645C267.465 150.535 267.575 150.425 267.685 150.425H289.575C289.685 150.425 289.795 150.535 289.795 150.645C289.795 150.755 289.685 150.865 289.575 150.865ZM285.615 145.42H254.65C254.54 145.42 254.43 145.31 254.43 145.2C254.43 145.09 254.54 144.98 254.65 144.98H285.615C285.725 144.98 285.835 145.09 285.835 145.2C285.835 145.31 285.725 145.42 285.615 145.42Z" fill="#FFF0C0"/>
<path d="M272.195 140.03C272.085 140.03 271.975 139.92 271.975 139.81V135.19C271.975 135.08 272.085 134.97 272.195 134.97C272.305 134.97 272.415 135.08 272.415 135.19V139.81C272.415 139.92 272.305 140.03 272.195 140.03ZM279.895 145.42C279.785 145.42 279.675 145.31 279.675 145.2V139.755C279.675 139.645 279.785 139.535 279.895 139.535C280.005 139.535 280.115 139.645 280.115 139.755V145.2C280.115 145.31 280.005 145.42 279.895 145.42ZM274.065 150.645C273.955 150.645 273.845 150.535 273.845 150.425V145.2C273.845 145.09 273.955 144.98 274.065 144.98C274.175 144.98 274.285 145.09 274.285 145.2V150.425C274.285 150.59 274.175 150.645 274.065 150.645Z" fill="#FFF0C0"/>
</svg>
